<svg width="1237" height="662" viewBox="0 0 1237 662" fill="none" xmlns="http://www.w3.org/2000/svg">
<g filter="url(#filter0_d)">
<path d="M342.875 16.6413C164.965 16.6413 20.9438 159.756 20.9438 334.489C20.9438 470.947 107.357 585.771 229.352 632.367L300.515 440.992C254.767 424.351 224.268 382.748 224.268 332.825C224.268 267.924 276.794 216.336 342.875 216.336C408.955 216.336 461.481 267.924 461.481 332.825C461.481 382.748 430.982 424.351 385.234 440.992L456.398 632.367C578.392 585.771 664.805 470.947 664.805 334.489C664.805 159.756 520.784 16.6413 342.875 16.6413Z" fill="#4CAF50"/>
<path d="M239.518 654L224.268 647.344C92.1074 599.084 4 472.611 4 334.489C4 149.771 156.494 0 342.875 0C529.256 0 681.749 149.771 681.749 334.489C681.749 472.611 593.642 599.084 463.175 647.344L447.926 654L366.596 432.672L381.845 426.015C420.816 411.038 446.231 374.427 446.231 332.824C446.231 277.908 400.483 232.977 344.569 232.977C288.655 232.977 242.907 277.908 242.907 332.824C242.907 374.427 268.322 411.038 307.293 426.015L322.542 432.672L239.518 654ZM342.875 33.2824C175.132 33.2824 37.8875 168.076 37.8875 334.489C37.8875 452.641 110.746 562.473 219.185 609.069L278.488 449.313C234.435 427.679 207.325 382.748 207.325 332.824C207.325 259.603 268.322 199.695 342.875 199.695C417.427 199.695 478.424 259.603 478.424 332.824C478.424 382.748 451.314 427.679 407.261 449.313L466.564 609.069C575.004 562.473 647.862 454.305 647.862 334.489C647.862 168.076 510.618 33.2824 342.875 33.2824Z" fill="#2E7D32"/>
<path d="M512.004 258.446L579.427 303.497" stroke="white" stroke-width="2.96829"/>
<path d="M527.161 258.446C527.161 268.14 520.379 275.989 512.004 275.989C503.629 275.989 496.848 268.14 496.848 258.446C496.848 248.753 503.629 240.904 512.004 240.904C520.379 240.904 527.161 248.753 527.161 258.446Z" fill="#1EB9D7"/>
<path d="M579.427 303.497L646.616 227.538" stroke="white" stroke-width="2.96829"/>
<path d="M594.365 303.497C594.365 313.173 587.568 321.04 579.209 321.04C570.833 321.04 564.036 313.173 564.036 303.497C564.036 293.804 570.833 285.936 579.209 285.936C587.568 285.936 594.365 293.804 594.365 303.497Z" fill="#1EB9D7"/>
<path d="M661.788 227.538C661.788 237.232 654.991 245.099 646.616 245.099C638.256 245.099 631.459 237.232 631.459 227.538C631.459 217.863 638.256 209.995 646.616 209.995C654.991 209.995 661.788 217.863 661.788 227.538Z" fill="#1EB9D7"/>
<path d="M150.794 435.34C136.543 435.34 122.293 435.34 108.262 435.34C103.512 435.34 103.058 434.815 103.746 429.571C105.543 410.979 113.699 397.107 127.262 387.142C129.528 385.569 131.34 385.569 133.606 387.413C144.465 396.058 158.263 396.058 169.122 387.413C170.935 385.84 172.747 385.569 174.56 386.889C189.029 396.836 197.185 411.503 198.763 430.873C198.982 434.544 197.638 435.34 194.685 435.34C179.763 435.34 165.278 435.34 150.794 435.34Z" fill="white"/>
<path d="M176.591 357.301C176.591 373.795 165.06 387.413 151.028 387.413C136.543 387.413 124.778 373.795 124.778 357.554C124.778 340.789 136.543 327.189 150.794 327.189C165.278 327.189 176.591 340.536 176.591 357.301Z" fill="white"/>
<path d="M343.877 178.15C333.923 178.15 324.204 178.15 314.251 178.15C311.079 178.15 310.626 177.879 311.079 174.208C312.439 161.385 317.86 151.691 327.361 144.891C328.954 143.842 330.079 143.842 331.673 145.144C339.127 151.167 348.861 151.167 356.33 145.144C357.689 144.095 358.814 143.842 360.174 144.891C370.361 151.691 375.783 161.91 376.924 175.257C377.143 177.879 376.018 178.403 374.205 178.403C364.252 178.15 354.064 178.15 343.877 178.15Z" fill="white"/>
<path d="M344.111 65.8033C345.47 66.0565 346.83 66.3277 347.955 66.8522C360.408 71.3012 372.846 75.7503 385.284 80.1993C387.331 80.9951 390.034 81.2483 390.034 84.6484C390.268 88.591 387.331 88.8442 385.065 89.6219C372.846 94.089 360.408 98.538 348.189 102.987C345.689 103.765 343.205 104.289 340.486 103.24C327.814 98.538 315.157 94.3422 302.485 89.6219C300.438 88.8442 297.735 88.8442 297.735 85.1728C297.735 81.5196 300.438 80.9951 302.704 79.9461C315.157 75.4971 327.595 71.03 340.267 66.5809C341.627 66.3277 342.752 66.0565 344.111 65.8033Z" fill="white"/>
<path d="M371.487 108.738C371.268 121.054 368.768 132.05 359.955 139.646C344.783 152.74 324.204 144.62 318.314 123.406C316.501 117.13 316.282 110.583 316.501 104.036C316.501 99.8402 318.095 98.538 321.486 99.8402C326.47 101.685 331.673 103.24 336.423 105.338C341.627 107.707 346.595 107.707 351.58 105.338C355.877 103.512 360.408 101.938 364.924 100.636C370.815 98.538 371.268 99.0625 371.268 106.134C371.487 107.183 371.487 107.961 371.487 108.738Z" fill="white"/>
<path d="M386.877 124.455C386.877 128.904 384.377 130.477 380.987 130.477C377.815 130.477 374.658 129.175 374.877 124.979C375.33 116.081 378.721 107.436 378.268 98.2667C378.268 96.4401 379.862 95.3911 381.44 95.3911C383.252 95.3911 383.705 96.9646 383.705 98.538C383.252 107.436 385.737 115.81 386.877 124.455Z" fill="white"/>
<path d="M531.005 301.4C531.005 383.417 531.005 428.975 531.005 438.09C508.207 438.09 495.535 438.09 493.004 438.09C493.004 356.072 493.004 310.515 493.004 301.4C515.801 301.4 528.473 301.4 531.005 301.4Z" fill="white"/>
<path d="M598.209 346.432C598.209 401.43 598.209 431.977 598.209 438.09C575.396 438.09 562.724 438.09 560.193 438.09C560.193 383.092 560.193 352.545 560.193 346.432C583.005 346.432 595.678 346.432 598.209 346.432Z" fill="white"/>
<path d="M665.632 261.322C665.632 367.393 665.632 426.298 665.632 438.09C642.819 438.09 630.147 438.09 627.616 438.09C627.616 332.036 627.616 273.114 627.616 261.322C650.429 261.322 663.101 261.322 665.632 261.322Z" fill="white"/>
<path d="M765.853 288.83V438.09H727.618V288.83H681.007V254.775H813.588V288.83H765.853Z" fill="white"/>
<path d="M800.025 338.059C800.025 334.659 801.15 331.765 803.181 329.414C805.447 327.316 808.166 326.014 811.557 326.014C814.947 326.014 817.9 327.063 819.932 329.414C822.197 331.765 823.104 334.387 823.104 338.059C823.104 341.459 821.963 344.334 819.932 346.704C817.666 349.055 814.947 350.104 811.557 350.104C808.166 350.104 805.228 349.055 803.181 346.704C801.15 344.334 800.025 341.459 800.025 338.059ZM801.15 436.787V358.224H822.416V436.787H801.15Z" fill="white"/>
<path d="M871.745 429.716C867.901 435.467 862.464 438.09 855.448 438.09C849.12 438.09 843.682 435.738 839.166 431.289C834.635 426.822 832.37 421.071 832.37 414.524C832.37 406.151 835.088 399.604 840.526 395.137C845.948 390.688 853.87 388.59 864.276 388.59C864.714 388.59 866.901 388.59 870.839 388.59C870.839 386.076 870.839 384.683 870.839 384.412C870.839 377.069 868.12 373.669 862.698 373.669C857.714 373.669 855.229 376.545 855.229 382.314C853.12 382.314 836.291 382.314 834.182 382.314C834.182 374.718 836.901 368.696 842.557 363.722C848.214 359.002 855.229 356.651 863.823 356.651C872.417 356.651 879.214 359.002 884.417 363.975C889.386 368.949 892.105 375.496 892.105 384.141C892.105 387.631 892.105 415.483 892.105 418.973C892.105 426.298 893.23 431.814 895.043 435.467C895.043 435.558 895.043 435.992 895.043 436.787H873.777C872.87 434.165 872.198 431.814 871.745 429.716ZM860.433 420.8C863.136 420.8 865.183 420.275 866.995 418.973C868.792 417.671 869.933 416.098 870.605 414.524C870.605 413.692 870.605 409.496 870.605 401.955C866.948 401.955 864.901 401.955 864.495 401.955C857.042 401.955 853.417 405.879 853.417 413.475C853.417 415.573 854.089 417.4 855.448 418.973C856.807 420.547 858.386 420.8 860.433 420.8Z" fill="white"/>
<path d="M923.777 367.393C928.528 360.322 934.871 356.651 943.231 356.651C950.247 356.651 955.684 359.002 959.075 363.975C962.466 368.949 964.278 376.291 964.497 385.985C964.497 389.367 964.497 406.295 964.497 436.787H943.231C943.231 407.091 943.231 390.579 943.231 387.287C943.231 383.363 942.559 380.487 941.2 378.643C939.84 376.816 937.356 375.767 933.731 375.767C929.653 375.767 926.496 377.594 924.449 381.518C924.449 385.208 924.449 403.637 924.449 436.787H903.418V358.224H923.106C923.512 363.722 923.731 366.779 923.777 367.393Z" fill="white"/>
<path d="M1011.56 414.777C1011.56 412.698 1010.65 411.124 1008.84 409.804C1007.04 408.502 1003.42 407.182 998.216 405.879C993.013 404.577 988.716 402.732 985.091 400.635C981.7 398.555 978.982 395.661 977.169 392.532C975.356 389.385 974.45 385.714 974.45 381.789C974.45 374.465 976.95 368.696 982.153 363.975C987.357 359.273 993.919 356.904 1002.28 356.904C1011.34 356.904 1018.36 359.273 1023.78 363.975C1029.22 368.696 1031.92 374.718 1031.92 382.567C1029.79 382.567 1012.78 382.567 1010.65 382.567C1010.65 376.291 1007.72 373.145 1002.06 373.145C999.794 373.145 997.982 373.94 996.404 375.243C994.826 376.545 994.138 378.389 994.138 380.487C994.138 382.567 995.044 384.412 996.857 385.714C998.669 387.034 1001.61 388.065 1005.69 389.114C1009.75 389.91 1013.14 390.959 1016.31 392.261C1026.5 396.457 1031.7 403.528 1031.7 414C1031.7 421.071 1028.98 427.094 1023.56 431.543C1018.12 435.992 1010.89 438.361 1002.28 438.361C996.404 438.361 991.201 437.041 986.669 434.69C982.154 432.338 978.528 428.92 976.044 424.743C973.56 420.547 972.2 416.098 972.2 411.649C974.169 411.649 989.904 411.649 991.872 411.649C991.872 415.302 993.013 417.924 995.044 419.498C997.076 421.071 999.576 422.12 1002.73 422.12C1005.69 422.12 1007.72 421.324 1009.29 420.022C1010.65 418.72 1011.56 416.875 1011.56 414.777Z" fill="white"/>
<path d="M579.427 522.151L554.771 479.722V522.151H551.146V472.398H554.771L579.427 514.826V472.398H583.052V522.151H579.427Z" fill="white"/>
<path d="M579.427 522.151L554.771 479.722V522.151H551.146V472.398H554.771L579.427 514.826V472.398H583.052V522.151H579.427Z" stroke="white" stroke-width="0.494715"/>
<path d="M615.631 498.314V518.48H638.71V522.151H612.006V472.398H638.475V476.069H615.631V494.914H635.756V498.314H615.631Z" fill="white"/>
<path d="M615.631 498.314V518.48H638.71V522.151H612.006V472.398H638.475V476.069H615.631V494.914H635.756V498.314H615.631Z" stroke="white" stroke-width="0.494715"/>
<path d="M679.429 476.069V522.151H675.804V476.069H661.101V472.398H694.133V476.069H679.429Z" fill="white"/>
<path d="M679.429 476.069V522.151H675.804V476.069H661.101V472.398H694.133V476.069H679.429Z" stroke="white" stroke-width="0.494715"/>
<path d="M728.977 516.381L730.555 509.056L739.837 472.397H743.008L752.274 509.056L753.868 516.381L755.227 508.532L762.915 472.126H766.54L755.446 521.897H752.055L742.321 483.14L741.196 478.148L740.071 483.14L730.102 521.897H726.711L715.852 472.126H719.477L727.618 508.803L728.977 516.381Z" fill="white"/>
<path d="M728.977 516.381L730.555 509.056L739.837 472.397H743.008L752.274 509.056L753.868 516.381L755.227 508.532L762.915 472.126H766.54L755.446 521.897H752.055L742.321 483.14L741.196 478.148L740.071 483.14L730.102 521.897H726.711L715.852 472.126H719.477L727.618 508.803L728.977 516.381Z" stroke="white" stroke-width="0.494715"/>
<path d="M823.557 500.159C823.557 504.608 822.869 508.804 821.51 512.204C820.15 515.604 818.119 518.226 815.635 520.053C813.135 521.898 810.197 522.929 806.806 522.929C801.822 522.929 797.759 520.849 794.587 516.653C791.416 512.457 790.072 506.959 790.072 499.888C790.072 499.363 790.072 495.185 790.072 494.661C790.072 490.212 790.744 486.016 792.103 482.616C793.462 479.198 795.494 476.322 797.978 474.496C800.478 472.651 803.416 471.602 806.806 471.602C810.197 471.602 812.916 472.651 815.635 474.496C818.119 476.322 820.15 478.945 821.51 482.345C822.869 485.745 823.557 489.687 823.776 494.137C823.776 494.534 823.776 496.542 823.776 500.159C823.651 500.159 823.572 500.159 823.557 500.159ZM819.932 494.661C819.932 488.639 818.791 483.918 816.307 480.518C814.041 477.118 810.885 475.545 806.806 475.545C802.728 475.545 799.572 477.118 797.306 480.518C795.041 483.918 793.681 488.639 793.681 494.661C793.681 495.185 793.681 499.363 793.681 499.888C793.681 505.91 794.822 510.359 797.306 513.777C799.791 517.177 802.963 519.004 806.806 519.004C810.885 519.004 814.041 517.431 816.307 514.031C818.572 510.63 819.697 505.91 819.697 499.888C819.697 499.544 819.697 497.79 819.697 494.661C819.822 494.661 819.9 494.661 819.932 494.661Z" fill="white"/>
<path d="M823.557 500.159C823.557 504.608 822.869 508.804 821.51 512.204C820.15 515.604 818.119 518.226 815.635 520.053C813.135 521.898 810.197 522.929 806.806 522.929C801.822 522.929 797.759 520.849 794.587 516.653C791.416 512.457 790.072 506.959 790.072 499.888C790.072 499.363 790.072 495.185 790.072 494.661C790.072 490.212 790.744 486.016 792.103 482.616C793.462 479.198 795.494 476.322 797.978 474.496C800.478 472.651 803.416 471.602 806.806 471.602C810.197 471.602 812.916 472.651 815.635 474.496C818.119 476.322 820.15 478.945 821.51 482.345C822.869 485.745 823.557 489.687 823.776 494.137C823.776 494.534 823.776 496.542 823.776 500.159C823.651 500.159 823.572 500.159 823.557 500.159ZM819.932 494.661C819.932 488.639 818.791 483.918 816.307 480.518C814.041 477.118 810.885 475.545 806.806 475.545C802.728 475.545 799.572 477.118 797.306 480.518C795.041 483.918 793.681 488.639 793.681 494.661C793.681 495.185 793.681 499.363 793.681 499.888C793.681 505.91 794.822 510.359 797.306 513.777C799.791 517.177 802.963 519.004 806.806 519.004C810.885 519.004 814.041 517.431 816.307 514.031C818.572 510.63 819.697 505.91 819.697 499.888C819.697 499.544 819.697 497.79 819.697 494.661C819.822 494.661 819.9 494.661 819.932 494.661Z" stroke="white" stroke-width="0.494715"/>
<path d="M854.323 501.461V522.151H850.698V472.398C859.12 472.398 863.792 472.398 864.729 472.398C869.245 472.398 872.87 473.7 875.355 476.322C877.855 478.945 879.214 482.616 879.214 487.065C879.214 490.212 878.308 493.088 876.714 495.439C875.136 497.79 872.87 499.634 870.151 500.412C870.87 501.823 874.417 508.894 880.792 521.626V522.151H876.948L866.761 501.461H854.323ZM854.323 498.061C860.964 498.061 864.667 498.061 865.401 498.061C868.354 498.061 870.839 497.012 872.651 495.185C874.448 493.341 875.355 490.465 875.355 487.318C875.355 483.918 874.448 481.043 872.417 479.198C870.386 477.371 867.901 476.322 864.276 476.322C863.589 476.322 860.198 476.322 854.089 476.322V498.061H854.323Z" fill="white"/>
<path d="M854.323 501.461V522.151H850.698V472.398C859.12 472.398 863.792 472.398 864.729 472.398C869.245 472.398 872.87 473.7 875.355 476.322C877.855 478.945 879.214 482.616 879.214 487.065C879.214 490.212 878.308 493.088 876.714 495.439C875.136 497.79 872.87 499.634 870.151 500.412C870.87 501.823 874.417 508.894 880.792 521.626V522.151H876.948L866.761 501.461H854.323ZM854.323 498.061C860.964 498.061 864.667 498.061 865.401 498.061C868.354 498.061 870.839 497.012 872.651 495.185C874.448 493.341 875.355 490.465 875.355 487.318C875.355 483.918 874.448 481.043 872.417 479.198C870.386 477.371 867.901 476.322 864.276 476.322C863.589 476.322 860.198 476.322 854.089 476.322V498.061H854.323Z" stroke="white" stroke-width="0.494715"/>
<path d="M910.887 504.337V522.151H907.261V472.398H910.887V499.11L932.824 472.398H937.356L919.48 494.39L938.934 521.898H934.418L916.996 497.537L910.887 504.337Z" fill="white"/>
<path d="M910.887 504.337V522.151H907.261V472.398H910.887V499.11L932.824 472.398H937.356L919.48 494.39L938.934 521.898H934.418L916.996 497.537L910.887 504.337Z" stroke="white" stroke-width="0.494715"/>
<path d="M632.147 585.794C630.788 589.447 630.335 592.069 630.1 594.167C630.1 594.692 630.335 595.216 630.553 595.741C630.335 595.741 629.881 596.265 628.975 596.518C628.522 596.79 628.303 596.79 627.85 596.79C627.163 596.79 626.709 596.265 626.709 595.216C626.709 593.118 627.616 589.972 629.428 585.522C629.46 585.45 629.616 585.107 629.881 584.474C629.475 584.474 629.241 584.474 629.209 584.474C627.616 584.474 626.256 584.745 625.35 585.522C625.803 582.9 627.163 581.598 629.209 581.598C629.319 581.598 629.928 581.598 631.006 581.598C631.288 581.128 631.428 580.856 631.46 580.802C633.053 577.149 635.538 572.429 638.71 566.406C639.835 564.308 640.522 563.006 641.194 562.482C641.866 561.957 642.772 561.433 644.366 561.179C644.132 563.784 643.913 566.406 643.913 568.757C643.913 575.051 644.366 581.327 645.272 587.874C645.725 591.545 646.616 593.643 647.522 594.692C646.616 595.994 645.725 596.79 645.038 596.79C643.46 596.79 642.319 592.594 641.413 584.474C639.835 584.745 638.257 584.745 636.444 584.745C636.178 584.763 634.819 584.835 632.366 584.998C632.241 585.468 632.163 585.739 632.147 585.794ZM636.444 582.647C638.475 582.647 640.069 582.647 641.194 582.376C640.741 577.149 640.522 572.7 640.522 569.029C640.522 568.848 640.522 567.383 640.522 567.202C640.288 567.708 639.382 569.282 638.257 571.38C636.21 575.304 634.631 578.722 633.725 581.598C633.71 581.652 633.631 581.905 633.506 582.376C635.272 582.538 636.241 582.629 636.444 582.647Z" fill="#1EB9D7"/>
<path d="M676.038 571.38C678.304 571.38 679.21 574.78 679.21 581.598C679.21 581.887 679.21 584.184 679.21 584.474C679.21 587.62 679.21 589.971 679.429 591.02C679.648 592.069 680.101 592.865 680.554 592.865C681.46 592.865 682.367 591.816 683.507 589.718C684.632 587.62 686.445 583.425 688.929 577.149C689.039 577.257 689.945 578.089 690.07 578.198C687.804 584.474 685.757 589.194 684.179 592.341C682.367 595.469 680.789 596.79 679.429 596.79C678.07 596.79 677.398 595.741 676.71 593.896C676.257 592.069 676.038 588.669 676.038 584.22C676.038 584.003 676.038 582.321 676.038 582.122C676.038 579.5 676.038 577.927 675.804 576.878C675.585 575.829 675.351 575.304 674.679 575.304C673.32 575.304 671.288 579.247 668.351 587.349C667.663 589.194 667.21 590.496 666.991 591.02C666.304 593.118 665.851 594.42 665.851 595.469C665.851 595.741 665.851 596.265 666.085 596.518C665.398 596.79 664.944 597.043 664.726 597.043C663.819 597.043 663.132 596.265 663.132 594.421C663.132 593.896 663.366 591.816 663.585 587.874C663.632 587.385 663.991 583.406 664.038 582.9C664.273 580.802 664.273 579.247 664.273 577.927C664.273 576.353 664.038 575.051 663.585 574.002C663.819 574.002 664.038 573.749 664.726 573.478C665.398 573.224 665.851 572.953 666.304 572.953C666.991 572.953 667.445 573.749 667.445 575.575C667.445 576.353 667.445 577.927 667.21 580.296C667.21 580.802 667.21 581.327 667.21 581.598C667.163 582.05 666.945 584.329 666.538 588.398C671.054 577.058 674.226 571.38 676.038 571.38Z" fill="#1EB9D7"/>
<path d="M692.773 594.167C694.82 594.167 697.304 592.594 699.789 589.447C702.273 586.318 704.773 582.376 706.805 577.149C706.945 577.257 708.023 578.089 708.164 578.198C706.133 583.696 703.633 588.398 700.476 592.069C697.304 595.741 694.367 597.567 691.648 597.567C689.836 597.567 688.476 596.79 687.351 594.945C686.21 593.118 685.757 590.767 685.757 587.62C685.757 583.171 686.664 579.5 688.711 576.353C690.523 573.224 692.773 571.651 695.492 571.651C696.851 571.651 697.758 572.175 698.429 573.224C699.117 574.255 699.57 575.575 699.57 577.149C699.57 579.771 698.429 582.376 696.398 584.473C694.367 586.318 691.867 587.349 689.164 587.349C689.164 591.816 690.289 594.167 692.773 594.167ZM694.586 582.376C696.179 580.802 696.851 578.722 696.851 576.624C696.851 574.78 696.398 573.749 695.273 573.749C693.914 573.749 692.773 574.78 691.414 577.149C690.289 579.247 689.617 581.851 689.164 584.998C691.195 584.745 693.007 583.949 694.586 582.376Z" fill="#1EB9D7"/>
<path d="M708.617 594.167C708.617 590.496 708.164 586.318 707.258 581.598C706.352 577.149 704.992 573.478 703.633 571.126C704.539 570.331 705.226 570.077 705.898 570.077C707.039 570.077 708.164 572.175 709.07 576.624C710.195 581.073 710.883 586.318 711.336 592.594C713.133 589.194 714.492 585.794 715.633 582.122C716.758 578.451 717.445 575.304 717.664 572.953C719.242 574.002 719.93 575.051 719.93 576.1C719.93 577.149 719.242 579.5 717.664 583.171C716.305 586.843 714.727 590.243 712.914 593.372C712.008 594.945 711.336 595.994 710.883 596.518C710.43 597.043 709.289 597.567 708.164 597.567C708.383 596.265 708.617 594.945 708.617 594.167Z" fill="#1EB9D7"/>
<path d="M727.618 594.421C729.649 594.421 732.149 592.865 734.633 589.718C737.118 586.571 739.618 582.647 741.649 577.402C741.79 577.511 742.868 578.343 743.008 578.451C740.962 583.949 738.477 588.669 735.305 592.341C732.149 595.994 729.211 597.839 726.493 597.839C724.68 597.839 723.321 597.043 722.196 595.216C721.055 593.372 720.602 591.02 720.602 587.874C720.602 583.425 721.508 579.771 723.555 576.624C725.352 573.478 727.618 571.904 730.336 571.904C731.696 571.904 732.602 572.429 733.274 573.478C733.961 574.526 734.415 575.829 734.415 577.402C734.415 580.024 733.274 582.647 731.243 584.745C729.211 586.571 726.711 587.62 723.992 587.62C723.992 592.069 725.133 594.421 727.618 594.421ZM729.649 582.9C731.243 581.327 731.915 579.247 731.915 577.149C731.915 575.304 731.461 574.255 730.336 574.255C728.977 574.255 727.852 575.304 726.493 577.673C725.133 579.5 724.446 582.376 724.227 585.522C726.258 585.269 728.071 584.473 729.649 582.9Z" fill="#1EB9D7"/>
<path d="M740.743 598.092C739.836 598.092 739.165 597.314 739.165 595.994C739.165 595.216 739.383 593.643 739.836 590.767C739.899 590.189 740.446 585.577 740.524 584.998C740.961 581.598 741.196 579.247 741.196 577.402C741.196 576.624 740.961 575.829 740.743 575.304C741.868 574.78 742.555 574.527 743.227 574.527C743.915 574.527 744.368 575.304 744.368 576.624C744.368 577.402 744.133 579.771 743.68 583.171C743.587 583.822 742.868 589.067 742.774 589.718C744.587 584.22 746.618 579.771 748.43 576.624C750.243 573.478 752.055 571.904 753.634 571.904C754.087 571.904 754.54 572.175 754.993 572.7C755.446 573.224 755.68 573.749 755.68 574.527C755.68 575.575 754.993 576.878 753.415 578.722C752.962 577.402 752.509 576.878 751.821 576.878C750.477 576.878 748.884 578.975 747.071 582.9C745.946 585.522 744.821 588.145 743.915 590.767C743.008 593.372 742.555 595.47 742.555 596.518C742.54 596.573 742.462 596.844 742.321 597.314C741.571 597.839 741.04 598.092 740.743 598.092Z" fill="#1EB9D7"/>
<path d="M761.337 581.598C761.556 581.598 761.79 581.598 762.009 581.598C762.165 581.616 763.431 581.833 763.587 581.851C763.821 581.851 764.274 581.851 764.493 581.851C765.181 581.851 765.853 581.598 766.306 580.802C766.087 583.696 765.181 585.269 764.274 585.269C764.04 585.269 763.821 585.269 763.368 585.269C763.259 585.233 762.352 585.034 762.243 584.998C761.556 584.745 760.884 584.745 760.431 584.745C759.977 584.998 759.29 585.269 758.618 585.522C759.29 582.9 760.196 581.598 761.337 581.598Z" fill="#1EB9D7"/>
<path d="M776.493 594.945C778.525 594.945 781.009 593.372 783.509 590.243C785.994 587.096 788.478 583.171 790.525 577.927C790.65 578.035 791.744 578.867 791.869 578.975C789.837 584.473 787.353 589.194 784.181 592.865C781.009 596.518 778.072 598.363 775.353 598.363C773.556 598.363 772.196 597.567 771.056 595.741C769.931 593.896 769.478 591.545 769.478 588.398C769.478 583.949 770.384 580.296 772.415 577.149C774.228 574.002 776.493 572.429 779.212 572.429C780.556 572.429 781.462 572.953 782.15 574.002C782.822 575.051 783.275 576.353 783.275 577.927C783.275 580.549 782.15 583.171 780.103 585.269C778.072 587.096 775.587 588.145 772.868 588.145C772.868 592.594 773.993 594.945 776.493 594.945ZM778.306 583.425C779.884 581.851 780.556 579.771 780.556 577.673C780.556 575.829 780.103 574.78 778.978 574.78C777.618 574.78 776.493 575.829 775.134 578.198C773.993 580.024 773.321 582.9 772.868 586.047C774.9 585.794 776.712 584.998 778.306 583.425Z" fill="#1EB9D7"/>
<path d="M802.056 572.7C804.322 572.7 805.228 576.1 805.228 582.9C805.228 583.189 805.228 585.504 805.228 585.794C805.228 588.922 805.228 591.292 805.447 592.341C805.681 593.372 806.135 594.167 806.588 594.167C807.478 594.167 808.385 593.118 809.525 591.02C810.65 588.923 812.463 584.745 814.947 578.451C815.072 578.56 815.963 579.391 816.088 579.5C813.822 585.794 811.791 590.496 810.197 593.643C808.619 596.79 806.806 598.092 805.447 598.092C804.088 598.092 803.416 597.043 802.728 595.216C802.056 593.372 802.056 589.971 802.056 585.522C802.056 585.323 802.056 583.642 802.056 583.425C802.056 580.802 802.056 579.247 801.822 578.198C801.603 577.149 801.385 576.624 800.697 576.624C799.338 576.624 797.306 580.549 794.369 588.669C793.681 590.496 793.228 591.816 793.009 592.341C792.322 594.42 791.869 595.741 791.869 596.79C791.869 597.043 791.869 597.567 792.103 597.839C791.416 598.092 790.962 598.363 790.744 598.363C789.837 598.363 789.166 597.567 789.166 595.741C789.166 595.216 789.384 593.118 789.619 589.194C789.65 588.687 790.025 584.709 790.072 584.22C790.291 582.122 790.291 580.549 790.291 579.247C790.291 577.673 790.072 576.353 789.619 575.304C789.837 575.304 790.072 575.051 790.744 574.78C791.416 574.526 791.869 574.255 792.322 574.255C793.009 574.255 793.462 575.051 793.462 576.878C793.462 577.673 793.462 579.247 793.228 581.598C793.228 582.122 793.228 582.647 793.228 582.9C793.181 583.352 792.962 585.631 792.556 589.718C797.072 578.361 800.244 572.7 802.056 572.7Z" fill="#1EB9D7"/>
<path d="M819.697 594.945C817.9 597.567 816.541 598.616 815.182 598.616C814.041 598.616 813.369 597.839 812.697 596.518C812.01 595.216 811.791 593.118 811.791 590.767C811.791 586.047 812.697 581.598 814.729 578.198C816.541 574.527 818.791 572.7 821.291 572.7C822.869 572.7 824.447 573.478 826.041 574.78C826.198 573.55 827.463 563.711 827.619 562.482C826.713 562.735 826.041 563.006 825.354 562.735C824.447 562.735 823.776 562.482 823.557 561.686C823.104 561.179 822.869 559.859 822.651 558.032C823.322 558.81 824.448 559.081 825.807 559.081C827.619 559.081 829.432 558.557 831.01 557.508C830.682 560.022 827.963 580.133 827.619 582.647C827.166 585.522 826.948 587.874 826.948 589.718C826.948 592.341 827.401 593.643 828.307 593.643C829.213 593.643 830.791 592.069 833.057 588.669C835.307 585.269 837.12 581.598 838.713 577.927C838.823 578.053 839.729 579.102 839.838 579.247C838.026 584.22 835.76 588.669 833.057 592.594C830.338 596.518 828.307 598.363 826.713 598.363C824.682 598.363 823.776 595.741 823.776 591.02C824.229 589.194 824.229 587.096 824.682 584.745C823.104 588.923 821.51 592.341 819.697 594.945ZM820.151 575.575C818.572 575.575 817.447 576.878 816.307 579.771C815.182 582.647 814.729 585.794 814.494 589.718C814.494 592.865 815.182 594.421 816.541 594.421C817.901 594.421 820.604 589.718 824.682 580.024C824.901 579.771 825.135 579.5 825.354 578.722C823.322 576.624 821.51 575.575 820.151 575.575Z" fill="#1EB9D7"/>
<path d="M846.854 593.896C844.588 597.314 842.557 598.888 840.745 598.888C839.62 598.888 838.713 598.363 838.026 597.314C837.354 596.265 837.12 594.692 837.12 592.865C837.12 592.069 837.12 591.02 837.354 589.718C837.401 589.447 837.76 587.349 837.807 587.096C838.26 583.425 838.479 580.802 838.479 579.5C838.479 578.722 838.26 577.927 838.026 577.402C839.385 576.878 840.073 576.624 840.526 576.624C841.198 576.624 841.651 577.402 841.651 578.975C841.651 580.024 841.416 581.851 841.198 583.949C841.135 584.401 840.588 587.964 840.526 588.398C840.291 590.496 840.073 592.069 840.073 592.594C840.073 594.42 840.526 595.469 841.651 595.469C842.776 595.469 844.588 593.896 846.62 590.767C848.667 587.62 850.698 583.424 852.729 578.722C852.792 578.777 853.104 579.138 853.635 579.771C850.62 586.915 848.354 591.635 846.854 593.896ZM840.526 567.979C841.416 567.979 842.323 567.455 843.682 566.406C845.042 565.357 845.948 564.308 846.62 563.53C846.182 565.628 845.495 567.455 844.37 568.757C842.776 570.855 841.416 571.904 840.963 571.904C840.526 571.904 840.291 571.651 840.291 570.855C840.073 569.806 840.291 569.028 840.526 567.979Z" fill="#1EB9D7"/>
<path d="M863.823 573.224C866.089 573.224 866.995 576.624 866.995 583.425C866.995 583.714 866.995 586.029 866.995 586.318C866.995 589.447 866.995 591.816 867.214 592.865C867.448 593.896 867.901 594.692 868.354 594.692C869.245 594.692 870.151 593.643 871.292 591.545C872.417 589.447 874.23 585.269 876.714 578.976C876.823 579.084 877.73 579.916 877.855 580.024C875.589 586.318 873.558 591.02 871.964 594.167C870.151 597.314 868.573 598.616 867.214 598.616C865.854 598.616 865.183 597.567 864.495 595.741C863.823 593.896 863.823 590.496 863.823 586.047C863.823 585.83 863.823 584.166 863.823 583.949C863.823 581.327 863.823 579.771 863.589 578.722C863.37 577.673 863.136 577.149 862.464 577.149C861.104 577.149 859.073 581.073 856.135 589.194C855.448 591.02 854.995 592.341 854.776 592.865C854.089 594.945 853.635 596.265 853.635 597.314C853.635 597.567 853.635 598.092 853.87 598.363C853.182 598.616 852.729 598.888 852.51 598.888C851.604 598.888 850.932 598.092 850.932 596.265C850.932 595.741 851.151 593.643 851.385 589.718C851.417 589.212 851.792 585.233 851.823 584.745C852.057 582.647 852.057 581.073 852.057 579.771C852.057 578.198 851.823 576.878 851.385 575.829C851.604 575.829 851.823 575.575 852.51 575.304C853.182 575.051 853.635 574.78 854.089 574.78C854.776 574.78 855.229 575.575 855.229 577.402C855.229 578.198 855.229 580.024 854.995 582.122C854.995 582.647 854.995 583.171 854.995 583.425C854.948 583.877 854.729 586.155 854.323 590.243C858.839 578.885 862.011 573.224 863.823 573.224Z" fill="#1EB9D7"/>
<path d="M881.699 593.118C879.886 595.469 878.308 596.518 876.714 596.518C875.589 596.518 874.683 595.994 873.995 594.692C873.323 593.372 873.105 592.069 873.105 590.243C873.105 586.047 874.23 582.122 876.261 578.722C878.308 575.304 880.558 573.477 883.058 573.477C884.417 573.477 885.761 574.002 887.12 575.304C887.355 573.749 887.574 572.953 888.027 572.429C888.48 572.175 889.386 571.651 890.964 571.651C890.292 574.002 889.386 579.771 888.714 588.669C888.683 588.904 888.511 590.785 888.48 591.02C892.777 587.096 895.949 583.171 898.433 578.975C898.558 579.102 899.449 580.151 899.574 580.296C897.308 584.745 893.683 589.447 888.261 594.421C888.261 594.945 888.261 595.469 888.261 595.741C888.027 599.665 887.808 602.288 887.355 604.114C886.902 605.959 886.214 607.514 885.308 609.359C883.277 612.506 881.011 614.061 878.308 614.061C876.714 614.061 875.589 613.537 874.683 612.506C873.777 611.457 873.323 610.137 873.323 608.31C873.323 606.737 873.777 605.163 874.448 603.861C875.355 602.541 876.714 600.967 878.98 599.412C880.339 598.363 882.605 596.518 885.089 594.167C885.152 593.552 885.449 590.496 885.995 584.998C884.339 588.85 882.902 591.545 881.699 593.118ZM882.605 575.829C881.245 575.829 879.652 577.149 878.527 580.024C877.167 582.9 876.495 585.794 876.495 588.923C876.495 591.292 876.948 592.341 878.073 592.341C879.214 592.341 880.558 591.02 882.37 588.398C883.964 585.794 885.542 582.647 886.902 578.975C885.542 576.878 884.183 575.829 882.605 575.829ZM881.917 600.19C878.527 603.065 876.714 605.688 876.714 608.039C876.714 609.088 876.948 609.884 877.62 610.661C878.073 611.457 878.98 611.71 879.652 611.71C883.277 611.457 885.308 606.737 885.308 597.043C884.636 597.567 883.511 598.616 881.917 600.19Z" fill="#1EB9D7"/>
<path d="M919.699 595.216C916.996 598.616 914.496 600.443 912.246 600.443C910.433 600.443 908.84 599.412 907.715 597.314C906.589 595.216 905.902 592.594 905.902 589.447C905.902 585.269 907.043 581.598 909.074 578.451C911.105 575.304 913.59 573.749 916.308 573.749C917.449 573.749 918.355 574.002 919.027 574.78C919.699 575.575 920.152 576.353 920.152 577.402C920.152 578.975 919.246 580.296 917.449 581.073C917.449 580.802 917.668 580.296 917.668 580.024C917.668 577.673 916.762 576.353 915.183 576.353C913.59 576.353 912.246 577.673 911.105 580.024C909.746 582.647 909.293 585.269 909.293 588.398C909.293 590.767 909.746 592.865 910.433 594.42C911.34 595.994 912.246 596.79 913.59 596.79C917.215 596.79 921.512 591.02 926.496 579.5C926.559 579.572 926.855 579.916 927.402 580.549C924.074 587.874 921.512 592.775 919.699 595.216Z" fill="#1EB9D7"/>
<path d="M939.168 583.425C939.168 587.874 938.028 591.545 936.215 594.945C934.418 598.363 931.918 599.918 929.434 599.918C927.402 599.918 925.809 598.888 924.684 597.043C923.559 595.216 922.871 592.594 922.871 589.447C922.871 585.794 923.777 582.9 925.356 580.296C926.949 577.673 928.981 576.353 931.012 576.353C931.246 576.353 931.699 576.353 932.153 576.624C931.918 575.829 931.699 575.304 931.699 574.78C931.699 574.002 931.918 573.478 932.153 572.7C934.637 572.953 936.449 575.051 938.028 578.451C939.621 580.296 941.418 581.073 943.231 581.073C944.372 581.073 945.731 580.549 947.075 579.247C947.153 579.428 947.7 580.893 947.762 581.073C946.184 582.647 944.59 583.696 943.012 583.696C941.653 583.424 940.528 583.171 939.168 582.376C939.168 582.647 939.168 583.171 939.168 583.425ZM933.512 578.722C933.059 578.451 932.606 578.451 932.153 578.451C930.559 578.451 928.981 579.5 927.621 581.851C926.262 584.22 925.59 586.843 925.59 589.718C925.59 591.816 926.043 593.643 926.715 594.945C927.402 596.265 928.527 597.043 929.652 597.043C931.246 597.043 932.824 595.741 933.965 593.118C935.09 590.496 935.762 587.349 935.762 583.949C935.996 582.9 935.996 581.598 935.762 580.549C934.871 580.296 934.184 579.5 933.512 578.722Z" fill="#1EB9D7"/>
<path d="M957.934 574.255C960.2 574.255 961.106 577.673 961.106 584.473C961.106 584.763 961.106 587.078 961.106 587.349C961.106 590.496 961.106 592.865 961.341 593.896C961.559 595.216 962.013 595.741 962.466 595.741C963.372 595.741 964.278 594.692 965.403 592.594C966.544 590.496 968.356 586.318 970.841 580.024C970.95 580.133 971.856 580.965 971.966 581.073C969.7 587.349 967.669 592.069 966.091 595.216C964.278 598.363 962.7 599.665 961.341 599.665C959.981 599.665 959.294 598.616 958.622 596.79C957.934 594.945 957.934 591.545 957.934 587.096C957.934 586.879 957.934 585.215 957.934 584.998C957.934 582.376 957.934 580.802 957.716 579.771C957.481 578.722 957.262 578.198 956.591 578.198C955.231 578.198 953.184 582.122 950.247 590.243C949.575 592.069 949.122 593.372 948.887 593.896C948.215 595.994 947.762 597.314 947.762 598.363C947.762 598.616 947.762 599.141 947.981 599.412C947.309 599.665 946.856 599.918 946.622 599.918C945.731 599.918 945.043 599.141 945.043 597.314C945.043 596.79 945.278 594.692 945.497 590.767C945.543 590.261 945.903 586.282 945.95 585.794C946.184 583.696 946.184 582.122 946.184 580.802C946.184 579.247 945.95 577.927 945.497 576.878C945.731 576.878 945.95 576.624 946.622 576.353C947.309 576.1 947.762 575.829 948.215 575.829C948.887 575.829 949.34 576.624 949.34 578.451C949.34 579.247 949.34 580.802 949.122 583.171C949.122 583.696 949.122 584.22 949.122 584.473C949.075 584.926 948.84 587.204 948.434 591.292C952.965 579.934 956.137 574.255 957.934 574.255Z" fill="#1EB9D7"/>
<path d="M982.372 574.527C984.638 574.527 985.544 577.927 985.544 584.745C985.544 585.034 985.544 587.331 985.544 587.62C985.544 590.767 985.544 593.118 985.763 594.167C985.997 595.216 986.45 595.994 986.904 595.994C987.81 595.994 988.716 594.945 989.841 592.865C990.966 590.767 992.779 586.571 995.279 580.296C995.388 580.386 996.294 581.236 996.404 581.327C994.138 587.62 992.107 592.341 990.529 595.469C988.716 598.616 987.122 599.918 985.763 599.918C984.419 599.918 983.732 598.888 983.06 597.043C982.607 595.216 982.372 591.816 982.372 587.349C982.372 587.15 982.372 585.468 982.372 585.269C982.372 582.647 982.372 581.073 982.154 580.024C981.919 578.976 981.7 578.451 981.013 578.451C979.654 578.451 977.622 582.376 974.685 590.496C973.997 592.341 973.56 593.643 973.325 594.167C972.653 596.265 972.2 597.567 972.2 598.616C972.2 598.888 972.2 599.412 972.419 599.665C971.747 599.919 971.294 600.19 971.06 600.19C970.153 600.19 969.481 599.412 969.481 597.567C969.481 597.043 969.7 594.945 969.935 591.02C969.981 590.532 970.341 586.553 970.388 586.047C970.606 583.949 970.606 582.376 970.606 581.073C970.606 579.5 970.388 578.198 969.935 577.149C970.153 577.149 970.388 576.878 971.06 576.624C971.747 576.353 972.2 576.1 972.419 576.1C973.107 576.1 973.56 576.878 973.56 578.722C973.56 579.5 973.56 581.073 973.325 583.425C973.325 583.949 973.325 584.474 973.325 584.745C973.294 585.197 973.138 587.458 972.872 591.545C977.403 580.205 980.56 574.527 982.372 574.527Z" fill="#1EB9D7"/>
<path d="M999.123 597.043C1001.15 597.043 1003.64 595.469 1006.14 592.341C1008.62 589.194 1011.11 585.269 1013.14 580.024C1013.28 580.133 1014.37 580.965 1014.5 581.073C1012.47 586.571 1009.98 591.292 1006.81 594.945C1003.64 598.616 1000.7 600.443 997.982 600.443C996.185 600.443 994.826 599.665 993.685 597.839C992.56 595.994 992.107 593.643 992.107 590.496C992.107 586.047 993.013 582.376 995.044 579.247C996.857 576.1 999.123 574.527 1001.83 574.527C1003.19 574.527 1004.09 575.051 1004.78 576.1C1005.45 577.149 1005.9 578.451 1005.9 580.024C1005.9 582.647 1004.78 585.269 1002.73 587.349C1000.7 589.447 998.216 590.243 995.497 590.243C995.497 594.692 996.623 597.043 999.123 597.043ZM1000.94 585.522C1002.51 583.949 1003.19 581.851 1003.19 579.771C1003.19 577.927 1002.73 576.878 1001.61 576.878C1000.25 576.878 999.123 577.927 997.763 580.296C996.623 582.376 995.951 584.998 995.497 588.145C997.529 587.874 999.341 587.096 1000.94 585.522Z" fill="#1EB9D7"/>
<path d="M1024 596.265C1021.29 599.665 1018.79 601.492 1016.54 601.492C1014.73 601.492 1013.14 600.443 1012.01 598.363C1010.89 596.265 1010.2 593.643 1010.2 590.496C1010.2 586.318 1011.34 582.647 1013.37 579.5C1015.4 576.353 1017.9 574.78 1020.61 574.78C1021.75 574.78 1022.65 575.051 1023.33 575.829C1024 576.624 1024.45 577.402 1024.45 578.451C1024.45 580.024 1023.56 581.327 1021.75 582.122C1021.75 581.851 1021.97 581.327 1021.97 581.073C1021.97 578.722 1021.06 577.402 1019.48 577.402C1017.9 577.402 1016.54 578.722 1015.4 581.073C1014.04 583.696 1013.59 586.318 1013.59 589.447C1013.59 591.816 1014.04 593.896 1014.73 595.469C1015.64 597.043 1016.54 597.839 1017.9 597.839C1021.51 597.839 1025.81 592.069 1030.79 580.549C1030.86 580.621 1031.15 580.965 1031.7 581.598C1028.37 588.923 1025.81 593.824 1024 596.265Z" fill="#1EB9D7"/>
<path d="M1039.17 593.372C1039.17 594.945 1038.26 596.518 1036.67 598.363C1035.09 600.19 1033.51 600.967 1032.15 600.967C1031.01 600.967 1030.11 600.19 1029.22 598.616C1028.53 597.043 1028.08 594.945 1028.08 592.341C1028.08 589.447 1028.53 585.269 1029.65 580.024C1029.7 579.771 1029.94 578.451 1030.34 576.1C1028.84 576.1 1028.01 576.1 1027.86 576.1C1026.72 576.1 1026.04 576.353 1025.36 576.878C1026.04 575.304 1026.5 574.255 1026.72 574.002C1027.17 573.478 1027.62 573.478 1028.53 573.478C1028.69 573.478 1029.44 573.478 1030.79 573.478C1030.94 572.537 1031 572.013 1031.01 571.904C1031.47 569.553 1032.15 567.98 1032.61 567.202C1033.28 566.406 1034.19 565.882 1035.55 565.882C1035.76 565.882 1036 565.882 1036.22 565.882C1035.55 567.455 1034.64 570.077 1033.73 573.478C1034.53 573.478 1040.86 573.478 1041.65 573.478C1043.01 573.478 1044.14 573.224 1044.83 572.7C1044.59 574.255 1044.14 575.304 1043.92 575.829C1043.47 576.353 1042.78 576.624 1041.65 576.624C1040.81 576.624 1034.12 576.624 1033.28 576.624C1033.28 577.149 1033.06 577.402 1033.06 577.673C1031.92 583.949 1031.25 588.669 1031.25 591.816C1031.25 595.469 1031.92 597.043 1033.73 597.043C1034.64 597.043 1035.55 596.518 1036.45 595.469C1037.58 593.896 1038.26 592.594 1038.72 591.292C1038.94 592.069 1039.17 592.594 1039.17 593.372Z" fill="#1EB9D7"/>
<path d="M1051.61 595.994C1049.34 599.412 1047.31 600.967 1045.5 600.967C1044.37 600.967 1043.47 600.443 1042.78 599.412C1042.11 598.363 1041.87 596.79 1041.87 594.945C1041.87 594.167 1041.87 593.118 1042.11 591.816C1042.15 591.545 1042.51 589.447 1042.56 589.194C1043.01 585.522 1043.23 582.9 1043.23 581.598C1043.23 580.802 1043.01 580.025 1042.78 579.5C1044.14 578.976 1044.83 578.722 1045.28 578.722C1045.95 578.722 1046.4 579.5 1046.4 581.073C1046.4 582.122 1046.19 583.949 1045.95 586.047C1045.89 586.499 1045.34 590.062 1045.28 590.496C1045.05 592.594 1044.83 594.167 1044.83 594.692C1044.83 596.518 1045.28 597.567 1046.4 597.567C1047.53 597.567 1049.34 595.994 1051.39 592.865C1053.42 589.718 1055.45 585.522 1057.48 580.802C1057.55 580.875 1057.86 581.236 1058.39 581.851C1055.37 589.013 1053.12 593.733 1051.61 595.994ZM1045.5 570.077C1046.4 570.077 1047.31 569.553 1048.67 568.504C1050.03 567.455 1050.94 566.406 1051.61 565.628C1051.15 567.708 1050.48 569.553 1049.34 570.855C1047.76 572.953 1046.4 574.002 1045.95 574.002C1045.5 574.002 1045.28 573.749 1045.28 572.953C1045.05 571.904 1045.28 570.855 1045.5 570.077Z" fill="#1EB9D7"/>
<path d="M1070.16 584.745C1070.16 589.194 1069.03 592.865 1067.22 596.265C1065.19 599.412 1062.92 601.239 1060.44 601.239C1058.39 601.239 1056.81 600.19 1055.69 598.363C1054.55 596.265 1053.87 593.896 1053.87 590.767C1053.87 587.096 1054.78 584.22 1056.36 581.598C1057.94 578.976 1059.98 577.673 1062.01 577.673C1062.25 577.673 1062.7 577.673 1063.14 577.927C1062.92 577.149 1062.7 576.624 1062.7 576.1C1062.7 575.304 1062.92 574.78 1063.14 574.002C1065.64 574.255 1067.45 576.353 1069.03 579.771C1070.61 581.598 1072.42 582.376 1074.23 582.376C1075.36 582.376 1076.72 581.851 1078.08 580.549C1078.14 580.73 1078.69 582.195 1078.76 582.376C1077.17 583.949 1075.59 584.998 1074 584.998C1072.87 584.745 1071.75 584.473 1070.16 583.696C1070.16 583.949 1070.16 584.473 1070.16 584.745ZM1064.73 580.024C1064.28 579.771 1063.83 579.771 1063.37 579.771C1061.8 579.771 1060.2 580.802 1058.84 583.171C1057.48 585.522 1056.81 588.145 1056.81 591.02C1056.81 593.118 1057.26 594.945 1057.94 596.265C1058.62 597.567 1059.75 598.363 1060.89 598.363C1062.47 598.363 1064.05 597.043 1065.19 594.421C1066.31 591.816 1067 588.669 1067 585.269C1067.22 584.22 1067.22 582.9 1067 581.851C1066.09 581.598 1065.41 580.802 1064.73 580.024Z" fill="#1EB9D7"/>
<path d="M1089.17 575.575C1091.42 575.575 1092.33 578.976 1092.33 585.794C1092.33 586.083 1092.33 588.38 1092.33 588.669C1092.33 591.816 1092.33 594.167 1092.56 595.216C1092.78 596.518 1093.23 597.043 1093.69 597.043C1094.59 597.043 1095.5 595.994 1096.62 593.896C1097.77 591.816 1099.58 587.62 1102.06 581.327C1102.17 581.435 1103.08 582.285 1103.19 582.376C1100.94 588.669 1098.89 593.372 1097.31 596.518C1095.73 599.665 1093.92 600.967 1092.56 600.967C1091.2 600.967 1090.53 599.919 1089.84 598.092C1089.17 596.265 1089.17 592.865 1089.17 588.398C1089.17 588.199 1089.17 586.517 1089.17 586.318C1089.17 583.696 1089.17 582.122 1088.94 581.073C1088.72 580.024 1088.48 579.5 1087.81 579.5C1086.45 579.5 1084.42 583.425 1081.47 591.545C1080.8 593.372 1080.34 594.692 1080.11 595.216C1079.44 597.314 1078.98 598.616 1078.98 599.665C1078.98 599.919 1078.98 600.443 1079.22 600.714C1078.53 600.967 1078.08 601.239 1077.86 601.239C1076.95 601.239 1076.26 600.443 1076.26 598.616C1076.26 598.092 1076.5 595.994 1076.72 592.069C1076.76 591.581 1077.12 587.584 1077.17 587.096C1077.41 584.998 1077.41 583.425 1077.41 582.122C1077.41 580.549 1077.17 579.247 1076.72 578.198C1076.95 578.198 1077.17 577.927 1077.86 577.673C1078.53 577.402 1078.98 577.149 1079.22 577.149C1079.89 577.149 1080.34 577.927 1080.34 579.771C1080.34 580.549 1080.34 582.122 1080.11 584.474C1080.11 584.998 1080.11 585.522 1080.11 585.794C1080.09 586.246 1079.94 588.507 1079.66 592.594C1084.19 581.254 1087.36 575.575 1089.17 575.575Z" fill="#1EB9D7"/>
<path d="M1100.94 595.216C1101.61 594.945 1102.06 594.945 1102.51 594.945C1103.42 594.945 1103.87 595.741 1103.87 597.043C1103.87 597.567 1103.87 598.363 1103.64 599.141C1103.62 599.249 1103.56 599.774 1103.42 600.714C1103.01 600.877 1102.78 600.949 1102.73 600.967C1101.83 601.239 1101.16 601.492 1100.94 601.492C1100.25 601.492 1099.8 600.967 1099.8 599.665C1099.8 599.412 1099.8 599.141 1099.8 598.888C1099.8 598.833 1099.8 598.417 1099.8 598.363C1099.8 598.092 1099.8 597.839 1099.8 597.567C1100.25 596.265 1100.03 595.741 1099.8 595.469C1100.03 595.415 1100.81 595.234 1100.94 595.216Z" fill="#1EB9D7"/>
<path d="M1111.11 595.216C1111.8 594.945 1112.25 594.945 1112.7 594.945C1113.59 594.945 1114.05 595.741 1114.05 597.043C1114.05 597.567 1114.05 598.363 1113.83 599.141C1113.81 599.249 1113.73 599.774 1113.59 600.714C1113.19 600.877 1112.97 600.949 1112.92 600.967C1112.02 601.239 1111.34 601.492 1111.11 601.492C1110.44 601.492 1109.98 600.967 1109.98 599.665C1109.98 599.412 1109.98 599.141 1109.98 598.888C1109.98 598.833 1109.98 598.417 1109.98 598.363C1109.98 598.092 1109.98 597.839 1109.98 597.567C1110.2 596.518 1109.98 595.994 1109.98 595.469C1110.2 595.415 1111 595.234 1111.11 595.216Z" fill="#1EB9D7"/>
<path d="M1121.06 595.216C1121.75 594.945 1122.2 594.945 1122.66 594.945C1123.56 594.945 1124 595.741 1124 597.043C1124 597.567 1124 598.363 1123.78 599.141C1123.77 599.249 1123.69 599.774 1123.56 600.714C1123.14 600.877 1122.92 600.949 1122.87 600.967C1121.97 601.239 1121.3 601.492 1121.06 601.492C1120.39 601.492 1119.94 600.967 1119.94 599.665C1119.94 599.412 1119.94 599.141 1119.94 598.888C1119.94 598.833 1119.94 598.417 1119.94 598.363C1119.94 598.092 1119.94 597.839 1119.94 597.567C1120.16 596.518 1120.16 595.994 1119.94 595.469C1120.16 595.415 1120.95 595.234 1121.06 595.216Z" fill="#1EB9D7"/>
<path d="M520.11 138.54C515.37 138.54 511.05 137.64 507.15 135.84C503.31 133.98 499.98 131.52 497.16 128.46C494.34 125.34 492.18 121.86 490.68 118.02C489.18 114.12 488.43 110.1 488.43 105.96C488.43 101.76 489.21 97.74 490.77 93.9C492.39 90 494.61 86.55 497.43 83.55C500.31 80.49 503.7 78.09 507.6 76.35C511.5 74.61 515.76 73.74 520.38 73.74C525.12 73.74 529.41 74.67 533.25 76.53C537.15 78.33 540.48 80.79 543.24 83.91C546.06 87.03 548.22 90.54 549.72 94.44C551.22 98.28 551.97 102.21 551.97 106.23C551.97 110.43 551.16 114.48 549.54 118.38C547.98 122.22 545.76 125.67 542.88 128.73C540.06 131.73 536.7 134.13 532.8 135.93C528.96 137.67 524.73 138.54 520.11 138.54ZM503.46 106.14C503.46 109.44 504.09 112.56 505.35 115.5C506.61 118.38 508.5 120.75 511.02 122.61C513.54 124.47 516.6 125.4 520.2 125.4C523.92 125.4 527.01 124.44 529.47 122.52C531.99 120.6 533.85 118.17 535.05 115.23C536.31 112.23 536.94 109.14 536.94 105.96C536.94 102.66 536.28 99.57 534.96 96.69C533.7 93.75 531.81 91.38 529.29 89.58C526.83 87.78 523.8 86.88 520.2 86.88C516.48 86.88 513.36 87.84 510.84 89.76C508.38 91.62 506.52 94.02 505.26 96.96C504.06 99.9 503.46 102.96 503.46 106.14ZM588.769 138.9C585.229 138.9 582.109 138.15 579.409 136.65C576.769 135.09 574.729 132.99 573.289 130.35V157.17H558.889V90.75H571.399V98.4C573.139 95.7 575.329 93.6 577.969 92.1C580.609 90.6 583.699 89.85 587.239 89.85C591.439 89.85 595.189 90.96 598.489 93.18C601.849 95.34 604.459 98.25 606.319 101.91C608.239 105.57 609.199 109.68 609.199 114.24C609.199 118.92 608.329 123.12 606.589 126.84C604.849 130.56 602.419 133.5 599.299 135.66C596.239 137.82 592.729 138.9 588.769 138.9ZM583.909 126.75C585.949 126.75 587.779 126.18 589.399 125.04C591.019 123.84 592.279 122.31 593.179 120.45C594.079 118.53 594.529 116.43 594.529 114.15C594.529 110.67 593.449 107.79 591.289 105.51C589.189 103.23 586.489 102.09 583.189 102.09C581.209 102.09 579.289 102.69 577.429 103.89C575.629 105.03 574.249 106.59 573.289 108.57V118.29C574.249 120.69 575.689 122.7 577.609 124.32C579.589 125.94 581.689 126.75 583.909 126.75ZM639.048 138.9C633.708 138.9 629.148 137.79 625.368 135.57C621.588 133.35 618.678 130.41 616.638 126.75C614.658 123.09 613.668 119.13 613.668 114.87C613.668 110.31 614.658 106.14 616.638 102.36C618.618 98.58 621.498 95.55 625.278 93.27C629.058 90.99 633.648 89.85 639.048 89.85C644.388 89.85 648.948 90.99 652.728 93.27C656.508 95.55 659.358 98.55 661.278 102.27C663.258 105.99 664.248 109.98 664.248 114.24C664.248 115.98 664.128 117.51 663.888 118.83H628.968C629.208 122.01 630.348 124.44 632.388 126.12C634.488 127.74 636.858 128.55 639.498 128.55C641.598 128.55 643.608 128.04 645.528 127.02C647.448 126 648.768 124.62 649.488 122.88L661.728 126.3C659.868 130.02 656.958 133.05 652.998 135.39C649.098 137.73 644.448 138.9 639.048 138.9ZM628.608 110.01H649.128C648.828 107.01 647.718 104.64 645.798 102.9C643.938 101.1 641.628 100.2 638.868 100.2C636.108 100.2 633.768 101.1 631.848 102.9C629.988 104.7 628.908 107.07 628.608 110.01ZM716.314 138H701.914V111.45C701.914 108.33 701.314 106.08 700.114 104.7C698.974 103.26 697.444 102.54 695.524 102.54C693.544 102.54 691.534 103.32 689.494 104.88C687.454 106.44 686.014 108.45 685.174 110.91V138H670.774V90.75H683.734V98.67C685.474 95.91 687.934 93.75 691.114 92.19C694.294 90.63 697.954 89.85 702.094 89.85C705.154 89.85 707.614 90.42 709.474 91.56C711.394 92.64 712.834 94.08 713.794 95.88C714.814 97.62 715.474 99.54 715.774 101.64C716.134 103.74 716.314 105.78 716.314 107.76V138ZM786.398 92.82C786.218 92.58 785.588 92.13 784.508 91.47C783.428 90.81 782.078 90.12 780.458 89.4C778.838 88.62 777.068 87.99 775.148 87.51C773.228 86.97 771.308 86.7 769.388 86.7C764.108 86.7 761.468 88.47 761.468 92.01C761.468 94.17 762.608 95.7 764.888 96.6C767.228 97.5 770.558 98.58 774.878 99.84C778.958 100.98 782.468 102.3 785.408 103.8C788.408 105.24 790.718 107.19 792.338 109.65C793.958 112.05 794.768 115.23 794.768 119.19C794.768 122.79 794.108 125.85 792.787 128.37C791.468 130.83 789.668 132.84 787.387 134.4C785.108 135.9 782.528 137.01 779.648 137.73C776.828 138.39 773.888 138.72 770.828 138.72C766.088 138.72 761.288 138.03 756.428 136.65C751.568 135.21 747.278 133.26 743.558 130.8L750.038 117.93C750.278 118.23 751.058 118.8 752.378 119.64C753.698 120.42 755.348 121.26 757.328 122.16C759.308 123.06 761.468 123.84 763.808 124.5C766.208 125.1 768.638 125.4 771.098 125.4C776.318 125.4 778.928 123.81 778.928 120.63C778.928 119.01 778.238 117.75 776.858 116.85C775.538 115.89 773.708 115.08 771.368 114.42C769.028 113.7 766.388 112.89 763.448 111.99C757.568 110.19 753.218 108 750.398 105.42C747.638 102.84 746.258 99.15 746.258 94.35C746.258 89.85 747.308 86.07 749.408 83.01C751.568 79.89 754.448 77.55 758.048 75.99C761.648 74.37 765.578 73.56 769.838 73.56C774.338 73.56 778.598 74.34 782.618 75.9C786.638 77.4 790.058 78.96 792.878 80.58L786.398 92.82ZM824.759 138.9C819.359 138.9 814.769 137.76 810.989 135.48C807.269 133.2 804.419 130.2 802.439 126.48C800.459 122.76 799.469 118.74 799.469 114.42C799.469 110.04 800.459 105.99 802.439 102.27C804.419 98.55 807.299 95.55 811.079 93.27C814.859 90.99 819.419 89.85 824.759 89.85C830.099 89.85 834.659 90.99 838.439 93.27C842.219 95.55 845.099 98.55 847.079 102.27C849.059 105.99 850.049 110.04 850.049 114.42C850.049 118.74 849.059 122.76 847.079 126.48C845.099 130.2 842.219 133.2 838.439 135.48C834.659 137.76 830.099 138.9 824.759 138.9ZM814.229 114.42C814.229 118.08 815.219 121.05 817.199 123.33C819.239 125.61 821.759 126.75 824.759 126.75C827.699 126.75 830.159 125.61 832.139 123.33C834.179 121.05 835.199 118.08 835.199 114.42C835.199 110.76 834.179 107.79 832.139 105.51C830.159 103.23 827.699 102.09 824.759 102.09C821.759 102.09 819.239 103.23 817.199 105.51C815.219 107.79 814.229 110.76 814.229 114.42ZM856.74 120.99V90.75H871.14V117.84C871.14 123.78 873.33 126.75 877.71 126.75C879.63 126.75 881.49 126.24 883.29 125.22C885.09 124.14 886.68 122.37 888.06 119.91V90.75H902.46V121.98C902.46 123.42 902.67 124.44 903.09 125.04C903.57 125.64 904.38 125.97 905.52 126.03V138C904.14 138.24 902.97 138.42 902.01 138.54C901.05 138.66 900.18 138.72 899.4 138.72C894.24 138.72 891.3 136.71 890.58 132.69L890.31 129.81C888.15 132.93 885.45 135.24 882.21 136.74C879.03 138.18 875.46 138.9 871.5 138.9C866.7 138.9 863.04 137.37 860.52 134.31C858 131.25 856.74 126.81 856.74 120.99ZM943.586 103.08C940.106 103.14 936.956 103.71 934.136 104.79C931.316 105.87 929.276 107.49 928.016 109.65V138H913.616V90.75H926.846V100.29C928.466 97.11 930.566 94.62 933.146 92.82C935.726 91.02 938.426 90.09 941.246 90.03C942.446 90.03 943.226 90.06 943.586 90.12V103.08ZM971.89 138.9C966.61 138.9 962.05 137.76 958.21 135.48C954.43 133.2 951.52 130.2 949.48 126.48C947.5 122.76 946.51 118.71 946.51 114.33C946.51 110.01 947.5 105.99 949.48 102.27C951.52 98.55 954.43 95.55 958.21 93.27C961.99 90.99 966.55 89.85 971.89 89.85C977.29 89.85 981.85 91.02 985.57 93.36C989.35 95.64 992.17 98.64 994.03 102.36L979.99 106.59C978.13 103.59 975.4 102.09 971.8 102.09C968.86 102.09 966.37 103.2 964.33 105.42C962.29 107.64 961.27 110.61 961.27 114.33C961.27 118.05 962.29 121.05 964.33 123.33C966.37 125.61 968.86 126.75 971.8 126.75C973.6 126.75 975.25 126.33 976.75 125.49C978.25 124.59 979.36 123.45 980.08 122.07L994.12 126.39C992.38 130.05 989.59 133.05 985.75 135.39C981.97 137.73 977.35 138.9 971.89 138.9ZM1022.78 138.9C1017.44 138.9 1012.88 137.79 1009.1 135.57C1005.32 133.35 1002.41 130.41 1000.37 126.75C998.388 123.09 997.398 119.13 997.398 114.87C997.398 110.31 998.388 106.14 1000.37 102.36C1002.35 98.58 1005.23 95.55 1009.01 93.27C1012.79 90.99 1017.38 89.85 1022.78 89.85C1028.12 89.85 1032.68 90.99 1036.46 93.27C1040.24 95.55 1043.09 98.55 1045.01 102.27C1046.99 105.99 1047.98 109.98 1047.98 114.24C1047.98 115.98 1047.86 117.51 1047.62 118.83H1012.7C1012.94 122.01 1014.08 124.44 1016.12 126.12C1018.22 127.74 1020.59 128.55 1023.23 128.55C1025.33 128.55 1027.34 128.04 1029.26 127.02C1031.18 126 1032.5 124.62 1033.22 122.88L1045.46 126.3C1043.6 130.02 1040.69 133.05 1036.73 135.39C1032.83 137.73 1028.18 138.9 1022.78 138.9ZM1012.34 110.01H1032.86C1032.56 107.01 1031.45 104.64 1029.53 102.9C1027.67 101.1 1025.36 100.2 1022.6 100.2C1019.84 100.2 1017.5 101.1 1015.58 102.9C1013.72 104.7 1012.64 107.07 1012.34 110.01Z" fill="white"/>
<path d="M727.872 214.168H729.456C730.128 214.168 730.672 214.04 731.088 213.784C731.504 213.528 731.824 213.08 732.048 212.44L741.552 185.944H745.152L754.56 212.44C754.784 213.08 755.104 213.528 755.52 213.784C755.936 214.04 756.496 214.168 757.2 214.168H758.736V217H748.8V214.168H751.392L748.944 207.16H737.712L735.216 214.168H737.808V217H727.872V214.168ZM748.08 204.568L743.328 191.08L738.576 204.568H748.08ZM768.852 217.72C766.548 217.72 764.788 217.08 763.572 215.8C762.356 214.52 761.748 212.664 761.748 210.232V196.792H757.908V193.96H761.748V188.584L765.588 187.144V193.96H772.788V196.792H765.588V210.424C765.588 211.992 765.86 213.128 766.404 213.832C766.98 214.504 767.876 214.84 769.092 214.84C769.924 214.84 770.612 214.776 771.156 214.648C771.7 214.52 772.196 214.28 772.644 213.928V211.864H776.1V215.128C775.108 215.992 774.052 216.632 772.932 217.048C771.812 217.496 770.452 217.72 768.852 217.72Z" fill="white"/>
</g>
<defs>
<filter id="filter0_d" x="0" y="0" width="1128" height="662" filterUnits="userSpaceOnUse" color-interpolation-filters="sRGB">
<feFlood flood-opacity="0" result="BackgroundImageFix"/>
<feColorMatrix in="SourceAlpha" type="matrix" values="0 0 0 0 0 0 0 0 0 0 0 0 0 0 0 0 0 0 127 0"/>
<feOffset dy="4"/>
<feGaussianBlur stdDeviation="2"/>
<feColorMatrix type="matrix" values="0 0 0 0 0 0 0 0 0 0 0 0 0 0 0 0 0 0 0.25 0"/>
<feBlend mode="normal" in2="BackgroundImageFix" result="effect1_dropShadow"/>
<feBlend mode="normal" in="SourceGraphic" in2="effect1_dropShadow" result="shape"/>
</filter>
</defs>
</svg>
